<svg width="100%" height="100%" viewBox="0 0 800 100"
     xmlns="http://www.w3.org/2000/svg" preserveAspectRatio="none">
  <path d="M0 0 
           C 40 20, 80 -20, 100 0
           C 120 20, 140 -40, 160 -40
           C 180 -40, 180 0, 200 0
           C 240 0, 260 -40, 300 -20
           C 340 0, 360 -40, 400 0
           C 440 40, 460 -40, 480 -40
           C 500 -40, 520 20, 540 0
           C 560 -20, 600 20, 620 0
           C 640 -20, 660 0, 700 -20
           C 740 -40, 760 0, 800 0
           L800 100 L0 100 Z"
        fill="#111e3c"/>
</svg>